<?xml version="1.0" encoding="utf-8"?>
<svg viewBox="89.616 143.381 285.429 81.527" width="285.429px" height="81.527px" xmlns="http://www.w3.org/2000/svg">
  <path d="M 186.646 210.301 L 186.646 157.988 L 212.822 157.988 C 221.389 157.988 225.673 162.109 225.673 170.346 L 225.673 180.43 C 225.673 188.617 221.389 192.712 212.822 192.712 L 196.265 192.712 L 196.265 210.301 L 186.646 210.301 Z M 196.265 184.296 L 212.585 184.296 C 214.898 184.296 216.056 183.184 216.056 180.961 L 216.056 169.664 C 216.056 167.491 214.898 166.405 212.585 166.405 L 196.265 166.405 L 196.265 184.296 Z" style="paint-order: fill; white-space: pre; fill: rgb(42, 64, 142);"/>
  <path d="M 235.024 210.301 L 235.024 157.988 L 244.64 157.988 L 244.64 201.886 L 275.657 201.929 L 275.657 210.293 L 235.024 210.301 Z" style="paint-order: fill; white-space: pre; fill: rgb(42, 64, 142);"/>
  <path d="M 285.594 210.301 L 285.594 157.988 L 311.771 157.988 C 320.337 157.988 324.622 162.107 324.622 170.345 L 324.622 178.912 C 324.622 185.282 321.994 189.148 316.738 190.512 L 326.2 208.33 L 325.017 210.301 L 316.817 210.301 L 306.725 191.195 L 295.214 191.195 L 295.214 210.301 L 285.594 210.301 Z M 295.214 182.781 L 311.534 182.781 C 313.846 182.781 315.004 181.669 315.004 179.443 L 315.004 169.664 C 315.004 167.491 313.846 166.403 311.534 166.403 L 295.214 166.403 L 295.214 182.781 Z" style="paint-order: fill; white-space: pre; fill: rgb(42, 64, 142);"/>
  <path d="M 332.864 197.943 L 332.864 170.345 C 332.864 162.107 337.148 157.988 345.715 157.988 L 368.816 157.988 L 373.469 161.475 L 373.469 166.403 L 345.952 166.403 C 343.639 166.403 342.482 167.491 342.482 169.664 L 342.482 198.625 C 342.482 200.799 343.639 201.886 345.952 201.886 L 365.426 201.886 L 365.426 187.405 L 353.915 187.405 L 353.915 178.988 L 375.045 178.988 L 375.045 210.301 L 345.715 210.301 C 337.148 210.301 332.864 206.181 332.864 197.943 Z" style="paint-order: fill; white-space: pre; fill: rgb(42, 64, 142);"/>
  <path d="M 171.141 184.145 C 171.141 195.395 166.574 205.597 159.203 212.968 C 151.832 220.34 141.63 224.906 130.381 224.906 C 119.13 224.906 108.928 220.34 101.557 212.968 C 94.185 205.597 89.617 195.395 89.617 184.145 C 89.617 172.895 94.185 162.693 101.557 155.321 C 108.928 147.949 119.13 143.383 130.381 143.383 C 141.63 143.383 151.832 147.949 159.203 155.321 C 166.574 162.693 171.141 172.895 171.141 184.145 Z M 159.076 155.449 C 151.727 148.1 141.592 143.564 130.381 143.564 C 119.167 143.564 109.032 148.1 101.684 155.449 C 94.336 162.799 89.798 172.932 89.798 184.145 C 89.798 195.359 94.336 205.491 101.684 212.839 C 109.032 220.191 119.167 224.727 130.381 224.727 C 141.592 224.727 151.727 220.191 159.076 212.839 C 166.424 205.491 170.962 195.359 170.962 184.145 C 170.962 172.932 166.424 162.799 159.076 155.449 Z" style="fill: none;"/>
  <path d="M 128.174 183.331 L 143.732 222.574 C 139.549 224.027 135.058 224.817 130.381 224.817 C 121.526 224.817 113.333 221.989 106.654 217.183 L 128.174 183.331 Z" style=""/>
  <path d="M 122.729 166.984 L 97.414 207.972 C 92.568 201.275 89.707 193.042 89.707 184.145 C 89.707 173.363 93.902 163.56 100.753 156.28 L 118.962 156.304 L 122.729 166.984 Z" style="fill: rgb(64, 98, 219);"/>
  <path d="M 171.051 184.145 C 171.051 191.747 168.965 198.865 165.335 204.951 L 153.823 208.736 L 128.26 143.529 C 128.961 143.492 129.668 143.472 130.381 143.472 C 152.843 143.472 171.051 161.681 171.051 184.145 Z" style="fill: rgb(42, 64, 142);"/>
  <path d="M 130.352 143.381 C 141.817 143.386 151.728 147.935 158.896 155.029 C 166.064 162.126 170.509 171.786 171.082 181.986 C 171.494 189.458 169.824 197.242 165.626 204.526 C 159.638 214.894 150.219 221.319 140.002 223.77 C 129.786 226.221 118.741 224.709 109.516 219.245 C 107.744 218.181 106.739 215.234 106.191 212.572 C 105.646 209.907 105.565 208.023 105.541 207.585 C 105.117 207.556 103.355 207.453 100.907 207.003 C 98.464 206.556 95.816 205.782 95.079 204.526 C 89.452 194.766 88.309 183.633 91.019 173.551 C 92.376 168.509 94.696 163.719 97.897 159.497 C 99.498 157.384 101.32 155.408 103.351 153.615 C 104.366 152.717 105.434 151.862 106.551 151.058 C 107.114 150.657 107.686 150.266 108.27 149.889 C 108.564 149.7 108.859 149.515 109.157 149.332 C 109.306 149.242 109.459 149.152 109.611 149.063 C 109.685 149.018 109.76 148.972 109.837 148.928 C 109.913 148.884 110.063 148.798 110.063 148.798 C 110.063 148.798 110.155 148.952 110.156 148.952 C 110.156 148.952 110.003 149.04 109.928 149.083 C 109.851 149.13 109.777 149.172 109.702 149.217 C 109.551 149.305 109.401 149.396 109.252 149.485 C 108.955 149.666 108.659 149.852 108.368 150.04 C 107.783 150.415 107.213 150.803 106.66 151.204 C 105.543 152.004 104.481 152.855 103.47 153.746 C 101.447 155.537 99.634 157.501 98.04 159.604 C 94.852 163.813 92.545 168.57 91.194 173.598 C 88.489 183.648 89.617 194.712 95.233 204.438 C 95.918 205.648 98.505 206.383 100.941 206.829 C 103.374 207.273 105.631 207.41 105.631 207.41 L 105.712 207.416 L 105.717 207.497 C 105.717 207.497 105.822 209.887 106.367 212.536 C 106.911 215.188 107.876 218.076 109.611 219.09 C 118.799 224.542 129.775 226.039 139.962 223.597 C 150.146 221.153 159.51 214.775 165.469 204.438 C 169.658 197.179 171.316 189.444 170.9 181.995 C 170.339 171.829 165.915 162.23 158.769 155.158 C 151.623 148.084 141.781 143.555 130.352 143.56 L 130.352 143.381 Z" style="fill: none;" transform="matrix(0, -1, 1, 0, -53.764862, 314.523346)"/>
  <path d="M 130.352 143.381 C 141.817 143.386 151.728 147.935 158.896 155.029 C 166.064 162.126 170.509 171.786 171.082 181.986 C 171.494 189.458 169.824 197.242 165.626 204.526 C 159.638 214.894 150.219 221.319 140.002 223.77 C 129.786 226.221 118.741 224.709 109.516 219.245 C 107.744 218.181 106.739 215.234 106.191 212.572 C 105.646 209.907 105.565 208.023 105.541 207.585 C 105.117 207.556 103.355 207.453 100.907 207.003 C 98.464 206.556 95.816 205.782 95.079 204.526 C 89.452 194.766 88.309 183.633 91.019 173.551 C 92.376 168.509 94.696 163.719 97.897 159.497 C 99.498 157.384 101.32 155.408 103.351 153.615 C 104.366 152.717 105.434 151.862 106.551 151.058 C 107.114 150.657 107.686 150.266 108.27 149.889 C 108.564 149.7 108.859 149.515 109.157 149.332 C 109.306 149.242 109.459 149.152 109.611 149.063 C 109.685 149.018 109.76 148.972 109.837 148.928 C 109.913 148.884 110.063 148.798 110.063 148.798 C 110.063 148.798 110.155 148.952 110.156 148.952 C 110.156 148.952 110.003 149.04 109.928 149.083 C 109.851 149.13 109.777 149.172 109.702 149.217 C 109.551 149.305 109.401 149.396 109.252 149.485 C 108.955 149.666 108.659 149.852 108.368 150.04 C 107.783 150.415 107.213 150.803 106.66 151.204 C 105.543 152.004 104.481 152.855 103.47 153.746 C 101.447 155.537 99.634 157.501 98.04 159.604 C 94.852 163.813 92.545 168.57 91.194 173.598 C 88.489 183.648 89.617 194.712 95.233 204.438 C 95.918 205.648 98.505 206.383 100.941 206.829 C 103.374 207.273 105.631 207.41 105.631 207.41 L 105.712 207.416 L 105.717 207.497 C 105.717 207.497 105.822 209.887 106.367 212.536 C 106.911 215.188 107.876 218.076 109.611 219.09 C 118.799 224.542 129.775 226.039 139.962 223.597 C 150.146 221.153 159.51 214.775 165.469 204.438 C 169.658 197.179 171.316 189.444 170.9 181.995 C 170.339 171.829 165.915 162.23 158.769 155.158 C 151.623 148.084 141.781 143.555 130.352 143.56 L 130.352 143.381 Z" style="fill: none;" transform="matrix(0, -1, 1, 0, -53.764862, 314.523346)"/>
  <path d="M 171.141 184.145 C 171.141 195.395 166.574 205.597 159.203 212.968 C 151.832 220.34 141.63 224.906 130.381 224.906 C 119.13 224.906 108.928 220.34 101.557 212.968 C 94.185 205.597 89.617 195.395 89.617 184.145 C 89.617 172.895 94.185 162.693 101.557 155.321 C 108.928 147.949 119.13 143.383 130.381 143.383 C 141.63 143.383 151.832 147.949 159.203 155.321 C 166.574 162.693 171.141 172.895 171.141 184.145 Z M 159.076 155.449 C 151.727 148.1 141.592 143.564 130.381 143.564 C 119.167 143.564 109.032 148.1 101.684 155.449 C 94.336 162.799 89.798 172.932 89.798 184.145 C 89.798 195.359 94.336 205.491 101.684 212.839 C 109.032 220.191 119.167 224.727 130.381 224.727 C 141.592 224.727 151.727 220.191 159.076 212.839 C 166.424 205.491 170.962 195.359 170.962 184.145 C 170.962 172.932 166.424 162.799 159.076 155.449 Z" style="fill: none;"/>
  <path d="M 171.141 184.145 C 171.141 195.395 166.574 205.597 159.203 212.968 C 151.832 220.34 141.63 224.906 130.381 224.906 C 119.13 224.906 108.928 220.34 101.557 212.968 C 94.185 205.597 89.617 195.395 89.617 184.145 C 89.617 172.895 94.185 162.693 101.557 155.321 C 108.928 147.949 119.13 143.383 130.381 143.383 C 141.63 143.383 151.832 147.949 159.203 155.321 C 166.574 162.693 171.141 172.895 171.141 184.145 Z M 159.076 155.449 C 151.727 148.1 141.592 143.564 130.381 143.564 C 119.167 143.564 109.032 148.1 101.684 155.449 C 94.336 162.799 89.798 172.932 89.798 184.145 C 89.798 195.359 94.336 205.491 101.684 212.839 C 109.032 220.191 119.167 224.727 130.381 224.727 C 141.592 224.727 151.727 220.191 159.076 212.839 C 166.424 205.491 170.962 195.359 170.962 184.145 C 170.962 172.932 166.424 162.799 159.076 155.449 Z" style="fill: none;"/>
  <path d="M 153.85 208.684 L 165.335 204.951 C 160.422 213.186 152.68 219.539 143.73 222.574 L 128.172 183.338 L 106.65 217.184 C 103.183 214.71 100.006 211.553 97.414 207.969 L 122.728 166.987 L 118.954 156.299 L 100.757 156.28 C 107.684 148.895 117.409 144.085 128.26 143.529 L 153.825 208.74 L 153.85 208.684 Z" style="fill: rgb(255, 255, 255);"/>
</svg>