<?xml version="1.0" encoding="utf-8"?>
<svg viewBox="190.758 176.95 116.978 116.59" xmlns="http://www.w3.org/2000/svg">
  <defs>
    <path id="path-1" d="M 213.57 122.407 C 210.108 208.049 331.086 200.8 323.373 121.582"/>
    <path id="path-2" d="M 231.197 178.983 C 247.326 157.766 288.165 161.144 295.938 183.151"/>
  </defs>
  <ellipse style="fill: rgb(121, 0, 48);" cx="202.071" cy="216.167" rx="5.671" ry="5.671"/>
  <path d="M 213.357 123.766 L 224.087 123.367 L 224.14 124.787 L 218.819 124.985 L 224.338 130.115 L 224.409 132.04 L 219.894 127.701 L 213.687 132.637 L 213.617 130.763 L 218.906 126.741 L 217.128 125.048 L 213.41 125.186 Z M 218.92 135.001 Q 221.525 134.398 223.322 135.456 Q 225.119 136.514 225.631 138.726 Q 225.966 140.175 225.542 141.498 Q 225.119 142.821 224.022 143.717 Q 222.925 144.614 221.355 144.977 Q 219.764 145.345 218.36 144.993 Q 216.955 144.642 216.037 143.613 Q 215.119 142.585 214.804 141.222 Q 214.462 139.745 214.907 138.417 Q 215.351 137.089 216.447 136.204 Q 217.543 135.319 218.92 135.001 Z M 219.229 136.433 Q 217.338 136.87 216.485 138.139 Q 215.632 139.407 215.987 140.941 Q 216.348 142.504 217.681 143.26 Q 219.013 144.015 221.033 143.548 Q 222.31 143.253 223.163 142.601 Q 224.015 141.949 224.348 140.996 Q 224.68 140.043 224.441 139.009 Q 224.101 137.539 222.846 136.713 Q 221.591 135.886 219.229 136.433 Z M 217.469 150.66 L 227.042 145.796 L 229.198 150.04 Q 229.849 151.32 229.929 152.117 Q 230.01 152.914 229.559 153.644 Q 229.109 154.374 228.319 154.775 Q 227.3 155.293 226.266 154.989 Q 225.232 154.684 224.343 153.403 Q 224.357 154.028 224.255 154.409 Q 224.027 155.223 223.516 156.107 L 221.756 159.096 L 220.947 157.503 L 222.295 155.224 Q 222.874 154.231 223.149 153.64 Q 223.424 153.048 223.462 152.671 Q 223.5 152.295 223.423 151.964 Q 223.359 151.726 223.11 151.236 L 222.364 149.767 L 218.113 151.927 Z M 223.461 149.209 L 224.844 151.932 Q 225.286 152.8 225.714 153.199 Q 226.143 153.597 226.667 153.651 Q 227.191 153.705 227.655 153.47 Q 228.334 153.124 228.521 152.409 Q 228.708 151.694 228.167 150.63 L 226.628 147.6 Z M 223.954 162.664 L 231.957 155.505 L 237.133 161.291 L 236.189 162.136 L 231.96 157.409 L 229.509 159.601 L 233.469 164.028 L 232.53 164.868 L 228.57 160.441 L 225.846 162.878 L 230.241 167.791 L 229.297 168.636 Z M 231.757 171.299 L 241.172 164.692 L 242.442 165.546 L 240.095 176.908 L 238.751 176.004 L 239.528 172.607 L 235.802 170.101 L 233.009 172.141 Z M 236.789 169.37 L 239.809 171.402 L 240.539 168.309 Q 240.87 166.898 241.15 166.036 Q 240.403 166.779 239.525 167.415 Z M 258.568 172.231 L 259.954 172.547 L 258.575 178.595 Q 258.216 180.173 257.647 181.02 Q 257.079 181.867 256.014 182.237 Q 254.949 182.607 253.436 182.262 Q 251.964 181.927 251.144 181.206 Q 250.325 180.486 250.143 179.435 Q 249.962 178.383 250.342 176.719 L 251.72 170.671 L 253.105 170.986 L 251.729 177.028 Q 251.418 178.392 251.524 179.096 Q 251.63 179.8 252.168 180.29 Q 252.706 180.781 253.599 180.984 Q 255.127 181.333 255.935 180.788 Q 256.742 180.243 257.192 178.272 Z M 262.702 183.893 L 262.626 173.156 L 264.083 173.145 L 269.782 181.535 L 269.723 173.105 L 271.085 173.096 L 271.161 183.833 L 269.703 183.843 L 264.004 175.446 L 264.064 183.883 Z M 276.583 183.273 L 274.692 172.703 L 276.09 172.453 L 277.982 183.022 Z M 286.146 181.098 L 278.616 172.386 L 280.065 171.869 L 285.316 178.276 Q 285.949 179.045 286.439 179.741 Q 286.378 178.83 286.392 177.891 L 286.5 169.57 L 287.866 169.082 L 287.518 180.608 Z M 295.296 177.557 L 289.501 168.517 L 296.037 164.327 L 296.721 165.394 L 291.381 168.817 L 293.156 171.586 L 298.157 168.38 L 298.837 169.44 L 293.836 172.646 L 295.809 175.723 L 301.358 172.165 L 302.042 173.232 Z M 305.986 170.426 L 298.116 163.122 L 301.354 159.632 Q 302.33 158.58 303.051 158.229 Q 303.771 157.878 304.612 158.049 Q 305.452 158.22 306.102 158.823 Q 306.94 159.6 307.011 160.675 Q 307.082 161.75 306.187 163.028 Q 306.769 162.799 307.161 162.763 Q 308.004 162.695 309.01 162.87 L 312.423 163.489 L 311.207 164.799 L 308.603 164.321 Q 307.471 164.12 306.821 164.066 Q 306.172 164.013 305.805 164.107 Q 305.438 164.201 305.154 164.388 Q 304.952 164.53 304.579 164.933 L 303.458 166.141 L 306.953 169.384 Z M 302.556 165.304 L 304.633 163.065 Q 305.296 162.351 305.522 161.811 Q 305.748 161.272 305.617 160.761 Q 305.487 160.25 305.106 159.896 Q 304.547 159.378 303.811 159.45 Q 303.076 159.521 302.263 160.396 L 299.952 162.888 Z M 311.707 159.018 L 312.229 157.778 Q 312.986 158.071 313.605 158.004 Q 314.224 157.938 314.848 157.439 Q 315.472 156.94 315.9 156.131 Q 316.279 155.412 316.356 154.749 Q 316.434 154.085 316.203 153.62 Q 315.973 153.154 315.533 152.922 Q 315.086 152.686 314.615 152.768 Q 314.145 152.851 313.604 153.327 Q 313.253 153.631 312.247 154.773 Q 311.242 155.915 310.687 156.292 Q 309.971 156.784 309.267 156.839 Q 308.563 156.893 307.909 156.548 Q 307.19 156.168 306.781 155.43 Q 306.372 154.692 306.462 153.737 Q 306.552 152.782 307.058 151.824 Q 307.616 150.768 308.382 150.142 Q 309.148 149.515 310.038 149.43 Q 310.928 149.345 311.78 149.754 L 311.234 151.007 Q 310.283 150.628 309.527 150.946 Q 308.771 151.263 308.193 152.357 Q 307.591 153.497 307.733 154.239 Q 307.875 154.981 308.465 155.292 Q 308.976 155.563 309.502 155.368 Q 310.023 155.18 311.179 153.831 Q 312.335 152.483 312.895 152.05 Q 313.715 151.423 314.51 151.338 Q 315.305 151.252 316.069 151.656 Q 316.826 152.056 317.267 152.844 Q 317.708 153.632 317.651 154.642 Q 317.594 155.651 317.057 156.668 Q 316.376 157.957 315.54 158.629 Q 314.705 159.302 313.688 159.399 Q 312.672 159.495 311.707 159.018 Z M 320.589 148.402 L 310.32 145.268 L 310.734 143.909 L 321.004 147.043 Z M 322.916 139.222 L 313.527 137.99 L 313.066 141.498 L 311.81 141.333 L 312.917 132.895 L 314.173 133.059 L 313.711 136.582 L 323.101 137.814 Z M 323.741 127.073 L 319.199 127.318 L 313.243 131.784 L 313.15 130.058 L 316.268 127.77 Q 317.143 127.136 318.023 126.582 Q 317.156 126.145 316.065 125.514 L 312.801 123.607 L 312.712 121.955 L 319.123 125.899 L 323.664 125.654 Z" transform="matrix(1, 0, 0, 1, -19.393394, 106.472374)" style="fill: rgb(121, 0, 48); white-space: pre;"/>
  <path d="M 231.183 177.151 L 225.019 168.36 L 228.335 166.034 Q 229.211 165.42 229.731 165.181 Q 230.455 164.834 231.105 164.83 Q 231.755 164.826 232.404 165.185 Q 233.054 165.543 233.512 166.197 Q 234.299 167.318 234.13 168.595 Q 233.96 169.872 232.095 171.18 L 229.841 172.761 L 232.347 176.335 Z M 229.113 171.724 L 231.386 170.13 Q 232.513 169.34 232.693 168.588 Q 232.872 167.836 232.338 167.074 Q 231.951 166.522 231.397 166.325 Q 230.843 166.128 230.299 166.321 Q 229.95 166.45 229.159 167.005 L 226.91 168.581 Z M 248.226 166.421 L 246.664 155.798 L 248.07 155.591 L 249.447 164.961 L 254.679 164.192 L 254.863 165.445 Z M 266.78 163.917 L 269.656 153.572 L 274.243 154.848 Q 275.626 155.232 276.268 155.711 Q 276.911 156.19 277.145 157.016 Q 277.379 157.841 277.142 158.695 Q 276.836 159.796 275.913 160.352 Q 274.99 160.909 273.444 160.7 Q 273.915 161.112 274.127 161.444 Q 274.573 162.162 274.88 163.136 L 275.897 166.452 L 274.175 165.974 L 273.404 163.441 Q 273.064 162.342 272.813 161.74 Q 272.562 161.139 272.31 160.856 Q 272.058 160.573 271.762 160.407 Q 271.543 160.293 271.014 160.145 L 269.426 159.704 L 268.149 164.298 Z M 269.756 158.518 L 272.698 159.337 Q 273.637 159.598 274.22 159.551 Q 274.803 159.504 275.197 159.154 Q 275.591 158.803 275.73 158.302 Q 275.934 157.568 275.533 156.947 Q 275.132 156.326 273.982 156.007 L 270.708 155.096 Z M 293.958 171.584 L 294.989 170.86 L 297.606 174.58 L 294.344 176.868 Q 293.059 176.49 292.075 175.82 Q 291.091 175.15 290.418 174.191 Q 289.51 172.895 289.323 171.448 Q 289.135 170 289.806 168.725 Q 290.477 167.449 291.773 166.541 Q 293.056 165.641 294.545 165.398 Q 296.034 165.155 297.28 165.784 Q 298.526 166.413 299.447 167.726 Q 300.115 168.68 300.347 169.667 Q 300.578 170.654 300.333 171.479 Q 300.089 172.303 299.361 173.153 L 298.337 172.306 Q 298.87 171.637 299.048 171.074 Q 299.226 170.511 299.074 169.803 Q 298.922 169.096 298.455 168.43 Q 297.896 167.633 297.245 167.221 Q 296.595 166.81 295.949 166.73 Q 295.303 166.651 294.69 166.785 Q 293.639 167.021 292.686 167.69 Q 291.51 168.514 291.002 169.474 Q 290.495 170.434 290.653 171.476 Q 290.812 172.519 291.421 173.389 Q 291.951 174.144 292.747 174.66 Q 293.542 175.176 294.133 175.316 L 295.77 174.168 Z" transform="matrix(1, 0, 0, 1, -13.604374, 26.534573)" style="fill: rgb(121, 0, 48); white-space: pre;"/>
  <g id="g-2" transform="matrix(0.022555, 0, 0, 0.022555, 228.277466, 228.047256)" style="">
    <g transform="translate(0.000000,2090.000000) scale(0.100000,-0.100000)">
      <path class="st0" d="M0,10450V0h10000h10000v10450v10450H10000H0V10450z M9979,19263c38-98,185-468,326-823s330-829,420-1055 c90-225,321-808,515-1295s425-1069,515-1295c90-225,242-609,339-852c97-244,255-642,352-885c97-244,249-627,339-853 c90-225,243-610,340-855s255-641,350-880s257-646,360-905c103-258,265-666,360-905s257-646,360-905c103-258,260-654,350-880 c90-225,261-655,380-955s273-687,342-860c68-173,128-319,133-324c4-4,124,28,267,72c925,289,2227,691,2228,689 c3-3,102-306,215-657c50-157,118-366,150-465c33-99,145-448,250-775c106-327,205-635,221-685c16-49,29-91,29-92s-28-11-62-22 c-35-10-207-65-383-121s-367-117-425-135s-292-92-520-165s-554-176-725-230c-170-54-454-144-630-200s-367-117-425-135 s-199-63-315-100c-115-37-257-82-315-100s-292-92-520-165c-1187-377-1110-353-1115-348c-2,3-136,341-358,903 c-52,132-179,452-281,710c-103,259-231,583-286,720c-54,138-191,484-305,770c-113,286-250,633-305,770c-54,138-191,484-305,770 c-113,286-293,741-400,1010c-107,270-291,735-410,1035s-260,658-315,795c-54,138-182,459-283,715s-186,470-188,477 c-2,6-45-50-96-125c-50-76-214-317-363-537c-150-220-323-476-386-570c-64-93-207-305-319-470c-237-350-526-775-710-1048 c-72-105-230-338-351-517c-292-430-680-1002-829-1222c-66-98-205-304-310-458c-104-154-249-367-320-473c-72-105-245-361-385-567 c-583-860-687-1013-796-1175c-64-93-175-258-247-365l-133-195l-1817-3l-1817-2l33,50c34,53,675,1046,842,1305 c192,298,810,1255,1207,1870c220,341,426,659,457,708c31,48,229,355,441,683s417,646,455,705c39,60,230,356,425,659 c195,302,400,620,455,705s228,354,385,596c157,243,317,491,355,550c39,60,243,377,455,705s417,646,455,705c39,60,230,356,425,659 c195,302,400,620,455,705s191,296,302,468s205,320,208,328c3,9-30,126-74,260c-43,134-154,476-246,759s-191,592-222,685 c-30,94-81,251-113,350c-103,316-154,474-240,742l-85,263H6538H5330v1465v1465h2289h2290L9979,19263z" style="fill: none;"/>
    </g>
    <polygon class="st1" points="533 96.175 533 389.175 774.5 389.175 872.5 695.075 168.3 1786.775 140.3 1830.175 500.4 1834.675 1024.9 1062.475 1368.5 1929.975 1912 1757.875 1825.5 1490.475 1576 1566.575 990.9 96.175" style="fill: rgb(121, 0, 48);"/>
  </g>
  <path d="M 218.94 243.813 C 218.43 245.454 220.299 245.001 220.299 245.001 C 220.977 245.001 221.77 244.266 222.846 241.943 C 223.922 239.622 226.13 237.586 227.772 235.32 C 229.412 233.056 230.148 232.094 230.148 232.094 C 230.885 234.528 228.054 236.679 228.054 236.679 C 228.054 236.679 227.997 236.962 227.997 238.32 C 227.997 239.679 226.13 241.549 225.844 243.414 C 225.561 245.283 226.864 244.433 226.864 244.433 C 226.751 244.828 225.958 244.998 225.958 244.998 C 225.958 244.998 225.677 246.132 226.921 245.961 C 228.67 245.723 229.242 242.791 230.091 240.016 C 230.94 237.242 235.582 234.188 238.015 230.562 C 240.477 226.896 241.016 227.845 246.053 227.335 C 247.674 227.172 249.042 226.786 250.325 226.311 C 249.291 225.725 248.111 224.728 247.863 223.09 C 247.529 220.857 246.314 219.756 245.716 219.339 C 246.473 219.835 248.309 221.223 248.713 223.374 C 248.95 224.637 249.958 225.483 250.971 226.041 C 253.384 225.023 255.437 223.544 257.659 221.675 C 261.223 218.674 264.619 219.921 265.64 220.261 C 266.656 220.6 265.413 221.731 265.413 221.731 C 264.11 223.092 265.977 224.11 265.977 224.11 C 267.223 225.129 268.241 224.221 268.241 224.221 C 270.62 223.713 270.112 220.939 270.112 220.939 C 271.527 220.939 272.091 222.24 272.091 222.24 C 271.527 222.636 271.979 223.316 271.979 223.316 C 271.469 224.052 271.979 224.279 271.979 224.279 C 273.848 224.56 275.092 224.221 275.092 221.391 C 275.092 218.56 272.941 217.26 272.941 217.26 C 272.941 217.26 272.998 216.977 273.113 216.693 C 273.226 216.41 274.016 215.392 274.016 215.392 C 274.016 215.392 274.98 215.052 275.15 214.204 C 275.32 213.356 274.415 211.827 274.243 210.75 C 274.075 209.675 273.622 208.089 273.622 208.089 C 273.622 208.089 273.904 206.902 273.904 206.504 C 273.904 206.109 272.318 206.674 272.318 206.674 C 272.318 205.937 270.451 205.374 270.451 205.374 C 270.451 205.374 271.638 209.392 270.279 205.599 C 268.919 201.808 266.942 205.548 266.942 205.548 C 266.484 205.443 265.854 205.421 265.155 205.441 C 263.681 206.327 261.695 208.179 263.658 211.264 C 263.658 211.264 261.394 209.34 262.471 206.79 C 262.657 206.346 262.761 206.091 262.838 205.904 C 262.816 205.915 262.794 205.921 262.771 205.932 C 262.634 206.212 262.471 206.566 262.471 206.566 C 262.471 206.566 261.909 206.477 261.132 206.666 C 260.157 207.122 259.47 207.472 259.47 207.472 C 260.087 206.99 260.641 206.786 261.132 206.666 C 261.621 206.439 262.18 206.184 262.771 205.932 C 262.826 205.817 262.875 205.727 262.905 205.667 C 260.953 205.964 258.875 206.51 257.601 207.133 C 257.123 207.365 256.419 207.736 255.629 208.162 C 254.361 214.937 258.169 217.775 258.169 217.775 C 254.142 216.176 254.513 210.684 254.807 208.607 C 254.147 208.969 253.433 209.361 252.708 209.763 C 252.373 212.136 252.564 214.434 252.564 214.434 C 251.814 212.965 251.849 211.278 251.991 210.166 C 251.235 210.586 250.498 211.001 249.784 211.408 C 249.536 212.905 249.306 214.75 249.395 216.018 C 249.565 218.452 251.546 219.755 251.546 219.755 C 249.791 218.849 249.225 217.546 249.225 217.546 C 249.28 220.038 250.585 221.283 250.585 221.283 C 248.319 219.762 248.319 215.112 248.589 212.083 C 247.868 212.493 247.275 212.834 246.77 213.122 C 246.11 215.578 247.13 217.714 247.13 217.714 C 246.181 216.698 245.955 214.863 245.915 213.606 C 245.083 214.073 243.824 214.714 242.47 215.387 C 241.627 216.371 240.562 217.828 240.392 219.074 C 240.392 219.074 240.4 217.528 240.855 216.173 C 238.931 217.103 237.044 217.989 236.031 218.452 C 233.937 219.414 231.135 216.397 230.059 215.21 C 228.983 214.022 227.574 214.133 225.084 212.094 C 222.597 210.057 221.697 210.874 221.697 210.874 C 219.829 210.591 219.701 213.301 219.521 212.896 C 219.341 212.49 222.222 212.667 224.323 214.72 C 225.882 216.245 227.07 215.389 228.993 217.709 C 231.061 220.209 231.735 220.323 231.336 221.284 C 230.941 222.248 227.545 224.512 227.092 228.925 C 226.639 233.343 223.186 235.944 223.186 235.944 C 222.847 238.548 219.904 240.472 218.942 241.832 C 217.979 243.19 218.94 243.813 218.94 243.813 Z M 238.188 222.133 C 238.357 220.662 239.546 217.546 239.546 217.546 C 239.432 220.038 238.016 223.603 238.188 222.133 Z M 230.601 226.549 C 231.846 224.453 231.735 222.87 231.735 222.87 C 231.846 224.059 231.563 225.474 231.055 227.738 C 230.546 230.002 231.848 230.624 231.848 230.624 L 230.829 231.361 C 230.829 231.361 229.355 228.645 230.601 226.549 Z" data-fill-palette-color="accent" style="fill: rgb(121, 0, 48);"/>
  <ellipse style="fill: none;" cx="249.152" cy="235.1" rx="43.118" ry="43.118"/>
  <ellipse style="fill: rgb(121, 0, 48);" cx="294.523" cy="216.167" rx="5.671" ry="5.671"/>
</svg>