<?xml version="1.0" encoding="utf-8"?>
<svg viewBox="83.605 131.838 314.389 104.613" width="314.389px" height="104.613px" xmlns="http://www.w3.org/2000/svg">
  <path d="M 195.946 192.19 L 195.946 132.141 L 225.992 132.141 C 235.827 132.141 240.744 136.87 240.744 146.326 L 240.744 157.901 C 240.744 167.3 235.827 172 225.992 172 L 206.987 172 L 206.987 192.19 L 195.946 192.19 Z M 206.987 162.339 L 225.721 162.339 C 228.375 162.339 229.704 161.063 229.704 158.51 L 229.704 145.544 C 229.704 143.049 228.375 141.801 225.721 141.801 L 206.987 141.801 L 206.987 162.339 Z" style="paint-order: fill; white-space: pre; fill: rgb(42, 64, 142);"/>
  <path d="M 249.923 192.19 L 249.923 132.141 L 260.963 132.141 L 260.963 182.53 L 289.2 182.53 L 289.2 192.19 L 249.923 192.19 Z" style="paint-order: fill; white-space: pre; fill: rgb(42, 64, 142);"/>
  <path d="M 295.589 192.19 L 295.589 132.141 L 325.636 132.141 C 335.47 132.141 340.388 136.87 340.388 146.326 L 340.388 156.16 C 340.388 163.471 337.371 167.909 331.338 169.476 L 342.199 189.927 L 340.841 192.19 L 331.429 192.19 L 319.844 170.259 L 306.631 170.259 L 306.631 192.19 L 295.589 192.19 Z M 306.631 160.599 L 325.365 160.599 C 328.019 160.599 329.347 159.323 329.347 156.77 L 329.347 145.544 C 329.347 143.049 328.019 141.801 325.365 141.801 L 306.631 141.801 L 306.631 160.599 Z" style="paint-order: fill; white-space: pre; fill: rgb(42, 64, 142);"/>
  <path d="M 349.576 178.004 L 349.576 146.326 C 349.576 136.87 354.493 132.141 364.327 132.141 L 390.845 132.141 L 396.185 136.144 L 396.185 141.801 L 364.599 141.801 C 361.944 141.801 360.617 143.049 360.617 145.544 L 360.617 178.788 C 360.617 181.282 361.944 182.53 364.599 182.53 L 386.953 182.53 L 386.953 165.907 L 373.741 165.907 L 373.741 156.247 L 397.994 156.247 L 397.994 192.19 L 364.327 192.19 C 354.493 192.19 349.576 187.461 349.576 178.004 Z" style="paint-order: fill; white-space: pre; fill: rgb(42, 64, 142);"/>
  <path d="M 196.214 216.369 L 196.214 201.808 L 202.229 201.808 C 204.416 201.808 205.509 202.866 205.509 204.982 L 205.509 209.179 C 205.509 211.294 204.416 212.352 202.229 212.352 L 198.658 212.352 L 198.658 216.369 L 196.214 216.369 Z M 198.658 210.304 L 202.105 210.304 C 202.745 210.304 203.065 209.995 203.065 209.379 L 203.065 204.78 C 203.065 204.165 202.745 203.857 202.105 203.857 L 198.658 203.857 L 198.658 210.304 Z" style="paint-order: fill; white-space: pre;"/>
  <path d="M 206.987 212.352 L 206.987 203.114 C 207.488 202.243 208.449 201.808 209.87 201.808 L 212.062 201.808 L 213.169 202.591 L 213.169 203.857 L 210.433 203.857 C 209.96 203.857 209.626 203.971 209.431 204.198 L 209.431 212.352 L 206.987 212.352 Z" style="paint-order: fill; white-space: pre;"/>
  <path d="M 213.714 209.179 L 213.714 204.982 C 213.714 202.866 214.814 201.808 217.013 201.808 L 219.937 201.808 C 222.123 201.808 223.217 202.866 223.217 204.982 L 223.217 209.179 C 223.217 211.294 222.123 212.352 219.937 212.352 L 217.013 212.352 C 214.814 212.352 213.714 211.294 213.714 209.179 Z M 216.157 209.379 C 216.157 209.995 216.478 210.304 217.118 210.304 L 219.811 210.304 C 220.453 210.304 220.773 209.995 220.773 209.379 L 220.773 204.78 C 220.773 204.165 220.453 203.857 219.811 203.857 L 217.118 203.857 C 216.478 203.857 216.157 204.165 216.157 204.78 L 216.157 209.379 Z" style="paint-order: fill; white-space: pre;"/>
  <path d="M 224.562 209.179 L 224.562 204.982 C 224.562 202.866 225.662 201.808 227.861 201.808 L 233.876 201.808 L 233.876 213.195 C 233.876 215.311 232.776 216.369 230.577 216.369 L 226.587 216.369 L 225.481 215.585 L 225.481 214.321 L 230.472 214.321 C 231.112 214.321 231.432 214.013 231.432 213.396 L 231.432 212.352 L 227.861 212.352 C 225.662 212.352 224.562 211.294 224.562 209.179 Z M 227.004 209.379 C 227.004 209.995 227.326 210.304 227.966 210.304 L 231.432 210.304 L 231.432 203.857 L 227.966 203.857 C 227.326 203.857 227.004 204.165 227.004 204.78 L 227.004 209.379 Z" style="paint-order: fill; white-space: pre;"/>
  <path d="M 235.466 212.352 L 235.466 203.114 C 235.967 202.243 236.928 201.808 238.349 201.808 L 240.541 201.808 L 241.648 202.591 L 241.648 203.857 L 238.912 203.857 C 238.438 203.857 238.104 203.971 237.91 204.198 L 237.91 212.352 L 235.466 212.352 Z" style="paint-order: fill; white-space: pre;"/>
  <path d="M 244.869 212.352 C 242.668 212.352 241.568 211.307 241.568 209.219 C 241.568 207.13 242.668 206.086 244.869 206.086 L 248.085 206.086 L 248.085 204.78 C 248.085 204.165 247.764 203.857 247.124 203.857 L 242.697 203.857 L 242.697 202.591 L 243.783 201.808 L 247.249 201.808 C 249.435 201.808 250.528 202.866 250.528 204.982 L 250.528 212.352 L 244.869 212.352 Z M 244.012 209.379 C 244.012 209.995 244.332 210.304 244.972 210.304 L 248.085 210.304 L 248.085 207.913 L 244.972 207.913 C 244.332 207.913 244.012 208.214 244.012 208.817 L 244.012 209.379 Z" style="paint-order: fill; white-space: pre;"/>
  <path d="M 252.183 212.352 L 252.183 201.808 L 264.672 201.808 C 266.857 201.808 267.95 202.866 267.95 204.982 L 267.95 212.352 L 265.506 212.352 L 265.506 204.78 C 265.506 204.165 265.186 203.857 264.546 203.857 L 261.288 203.857 L 261.288 212.352 L 258.844 212.352 L 258.844 203.857 L 254.626 203.857 L 254.626 212.352 L 252.183 212.352 Z" style="paint-order: fill; white-space: pre;"/>
  <path d="M 269.599 212.352 L 269.599 201.808 L 282.088 201.808 C 284.274 201.808 285.367 202.866 285.367 204.982 L 285.367 212.352 L 282.924 212.352 L 282.924 204.78 C 282.924 204.165 282.604 203.857 281.963 203.857 L 278.705 203.857 L 278.705 212.352 L 276.261 212.352 L 276.261 203.857 L 272.043 203.857 L 272.043 212.352 L 269.599 212.352 Z" style="paint-order: fill; white-space: pre;"/>
  <path d="M 286.963 199.981 L 286.963 197.591 L 289.532 197.591 L 289.532 199.981 L 286.963 199.981 Z M 287.025 212.352 L 287.025 201.808 L 289.469 201.808 L 289.469 212.352 L 287.025 212.352 Z" style="paint-order: fill; white-space: pre;"/>
  <path d="M 291.203 212.352 L 291.203 201.808 L 297.218 201.808 C 299.403 201.808 300.496 202.866 300.496 204.982 L 300.496 212.352 L 298.053 212.352 L 298.053 204.78 C 298.053 204.165 297.732 203.857 297.092 203.857 L 293.647 203.857 L 293.647 212.352 L 291.203 212.352 Z" style="paint-order: fill; white-space: pre;"/>
  <path d="M 301.928 209.179 L 301.928 204.982 C 301.928 202.866 303.027 201.808 305.227 201.808 L 311.243 201.808 L 311.243 213.195 C 311.243 215.311 310.142 216.369 307.942 216.369 L 303.953 216.369 L 302.847 215.585 L 302.847 214.321 L 307.838 214.321 C 308.479 214.321 308.799 214.013 308.799 213.396 L 308.799 212.352 L 305.227 212.352 C 303.027 212.352 301.928 211.294 301.928 209.179 Z M 304.371 209.379 C 304.371 209.995 304.691 210.304 305.332 210.304 L 308.799 210.304 L 308.799 203.857 L 305.332 203.857 C 304.691 203.857 304.371 204.165 304.371 204.78 L 304.371 209.379 Z" style="paint-order: fill; white-space: pre;"/>
  <path d="M 316.442 208.858 L 316.442 197.491 L 318.886 197.491 L 318.886 209.098 C 318.886 209.969 319.345 210.437 320.264 210.504 L 320.264 212.533 C 317.717 212.533 316.442 211.307 316.442 208.858 Z" style="paint-order: fill; white-space: pre;"/>
  <path d="M 323.952 212.352 C 321.752 212.352 320.651 211.307 320.651 209.219 C 320.651 207.13 321.752 206.086 323.952 206.086 L 327.168 206.086 L 327.168 204.78 C 327.168 204.165 326.848 203.857 326.208 203.857 L 321.78 203.857 L 321.78 202.591 L 322.866 201.808 L 326.332 201.808 C 328.519 201.808 329.612 202.866 329.612 204.982 L 329.612 212.352 L 323.952 212.352 Z M 323.095 209.379 C 323.095 209.995 323.415 210.304 324.057 210.304 L 327.168 210.304 L 327.168 207.913 L 324.057 207.913 C 323.415 207.913 323.095 208.214 323.095 208.817 L 323.095 209.379 Z" style="paint-order: fill; white-space: pre;"/>
  <path d="M 331.267 212.352 L 331.267 201.808 L 337.281 201.808 C 339.468 201.808 340.561 202.866 340.561 204.982 L 340.561 212.352 L 338.117 212.352 L 338.117 204.78 C 338.117 204.165 337.797 203.857 337.157 203.857 L 333.71 203.857 L 333.71 212.352 L 331.267 212.352 Z" style="paint-order: fill; white-space: pre;"/>
  <path d="M 341.981 209.179 L 341.981 204.982 C 341.981 202.866 343.081 201.808 345.28 201.808 L 351.296 201.808 L 351.296 213.195 C 351.296 215.311 350.195 216.369 347.996 216.369 L 344.007 216.369 L 342.9 215.585 L 342.9 214.321 L 347.891 214.321 C 348.532 214.321 348.852 214.013 348.852 213.396 L 348.852 212.352 L 345.28 212.352 C 343.081 212.352 341.981 211.294 341.981 209.179 Z M 344.425 209.379 C 344.425 209.995 344.745 210.304 345.385 210.304 L 348.852 210.304 L 348.852 203.857 L 345.385 203.857 C 344.745 203.857 344.425 204.165 344.425 204.78 L 344.425 209.379 Z" style="paint-order: fill; white-space: pre;"/>
  <path d="M 352.884 209.179 L 352.884 201.808 L 355.328 201.808 L 355.328 209.379 C 355.328 209.995 355.648 210.304 356.288 210.304 L 359.735 210.304 L 359.735 201.808 L 362.179 201.808 L 362.179 212.352 L 356.185 212.352 C 353.984 212.352 352.884 211.294 352.884 209.179 Z" style="paint-order: fill; white-space: pre;"/>
  <path d="M 366.626 212.352 C 364.427 212.352 363.327 211.307 363.327 209.219 C 363.327 207.13 364.427 206.086 366.626 206.086 L 369.842 206.086 L 369.842 204.78 C 369.842 204.165 369.522 203.857 368.882 203.857 L 364.454 203.857 L 364.454 202.591 L 365.54 201.808 L 369.008 201.808 C 371.193 201.808 372.286 202.866 372.286 204.982 L 372.286 212.352 L 366.626 212.352 Z M 365.77 209.379 C 365.77 209.995 366.091 210.304 366.731 210.304 L 369.842 210.304 L 369.842 207.913 L 366.731 207.913 C 366.091 207.913 365.77 208.214 365.77 208.817 L 365.77 209.379 Z" style="paint-order: fill; white-space: pre;"/>
  <path d="M 373.712 209.179 L 373.712 204.982 C 373.712 202.866 374.813 201.808 377.012 201.808 L 383.027 201.808 L 383.027 213.195 C 383.027 215.311 381.927 216.369 379.726 216.369 L 375.739 216.369 L 374.631 215.585 L 374.631 214.321 L 379.623 214.321 C 380.263 214.321 380.583 214.013 380.583 213.396 L 380.583 212.352 L 377.012 212.352 C 374.813 212.352 373.712 211.294 373.712 209.179 Z M 376.155 209.379 C 376.155 209.995 376.476 210.304 377.116 210.304 L 380.583 210.304 L 380.583 203.857 L 377.116 203.857 C 376.476 203.857 376.155 204.165 376.155 204.78 L 376.155 209.379 Z" style="paint-order: fill; white-space: pre;"/>
  <path d="M 384.533 209.179 L 384.533 204.982 C 384.533 202.866 385.633 201.808 387.834 201.808 L 390.548 201.808 C 392.734 201.808 393.828 202.866 393.828 204.982 L 393.828 207.954 L 386.977 207.954 L 386.977 209.379 C 386.977 209.995 387.297 210.304 387.937 210.304 L 393.41 210.304 L 393.41 211.569 L 392.303 212.352 L 387.834 212.352 C 385.633 212.352 384.533 211.294 384.533 209.179 Z M 386.977 206.126 L 391.384 206.126 L 391.384 204.78 C 391.384 204.165 391.064 203.857 390.422 203.857 L 387.937 203.857 C 387.297 203.857 386.977 204.165 386.977 204.78 L 386.977 206.126 Z" style="paint-order: fill; white-space: pre;"/>
  <path d="M 196.131 232.435 L 196.131 223.197 C 196.632 222.327 197.593 221.892 199.014 221.892 L 201.206 221.892 L 202.313 222.675 L 202.313 223.94 L 199.577 223.94 C 199.104 223.94 198.77 224.054 198.575 224.281 L 198.575 232.435 L 196.131 232.435 Z" style="paint-order: fill; white-space: pre;"/>
  <path d="M 202.858 229.262 L 202.858 225.064 C 202.858 222.949 203.958 221.892 206.157 221.892 L 208.873 221.892 C 211.058 221.892 212.151 222.949 212.151 225.064 L 212.151 228.038 L 205.301 228.038 L 205.301 229.463 C 205.301 230.078 205.622 230.386 206.262 230.386 L 211.734 230.386 L 211.734 231.652 L 210.626 232.435 L 206.157 232.435 C 203.958 232.435 202.858 231.377 202.858 229.262 Z M 205.301 226.209 L 209.707 226.209 L 209.707 224.864 C 209.707 224.248 209.387 223.94 208.747 223.94 L 206.262 223.94 C 205.622 223.94 205.301 224.248 205.301 224.864 L 205.301 226.209 Z" style="paint-order: fill; white-space: pre;"/>
  <path d="M 213.321 231.652 L 213.321 230.386 L 218.145 230.386 C 218.785 230.386 219.106 230.059 219.106 229.403 C 219.106 228.72 218.842 228.331 218.312 228.238 L 215.973 227.876 C 214.206 227.581 213.321 226.618 213.321 224.985 C 213.321 222.923 214.421 221.892 216.62 221.892 L 219.942 221.892 L 221.048 222.675 L 221.048 223.94 L 216.725 223.94 C 216.071 223.94 215.744 224.268 215.744 224.924 C 215.744 225.58 216.022 225.955 216.579 226.049 L 218.918 226.41 C 220.673 226.691 221.549 227.662 221.549 229.322 C 221.549 231.397 220.443 232.435 218.229 232.435 L 214.428 232.435 L 213.321 231.652 Z" style="paint-order: fill; white-space: pre;"/>
  <path d="M 222.7 229.262 L 222.7 225.064 C 222.7 222.949 223.799 221.892 225.999 221.892 L 228.714 221.892 C 230.9 221.892 231.993 222.949 231.993 225.064 L 231.993 228.038 L 225.143 228.038 L 225.143 229.463 C 225.143 230.078 225.463 230.386 226.104 230.386 L 231.576 230.386 L 231.576 231.652 L 230.469 232.435 L 225.999 232.435 C 223.799 232.435 222.7 231.377 222.7 229.262 Z M 225.143 226.209 L 229.55 226.209 L 229.55 224.864 C 229.55 224.248 229.23 223.94 228.589 223.94 L 226.104 223.94 C 225.463 223.94 225.143 224.248 225.143 224.864 L 225.143 226.209 Z" style="paint-order: fill; white-space: pre;"/>
  <path d="M 236.285 232.435 C 234.084 232.435 232.984 231.391 232.984 229.302 C 232.984 227.214 234.084 226.169 236.285 226.169 L 239.501 226.169 L 239.501 224.864 C 239.501 224.248 239.181 223.94 238.54 223.94 L 234.113 223.94 L 234.113 222.675 L 235.199 221.892 L 238.665 221.892 C 240.852 221.892 241.945 222.949 241.945 225.064 L 241.945 232.435 L 236.285 232.435 Z M 235.428 229.463 C 235.428 230.078 235.748 230.386 236.389 230.386 L 239.501 230.386 L 239.501 227.997 L 236.389 227.997 C 235.748 227.997 235.428 228.298 235.428 228.9 L 235.428 229.463 Z" style="paint-order: fill; white-space: pre;"/>
  <path d="M 243.517 232.435 L 243.517 223.197 C 244.018 222.327 244.978 221.892 246.398 221.892 L 248.592 221.892 L 249.699 222.675 L 249.699 223.94 L 246.962 223.94 C 246.489 223.94 246.155 224.054 245.961 224.281 L 245.961 232.435 L 243.517 232.435 Z" style="paint-order: fill; white-space: pre;"/>
  <path d="M 250.243 229.262 L 250.243 225.064 C 250.243 222.949 251.343 221.892 253.543 221.892 L 257.49 221.892 L 258.597 222.675 L 258.597 223.94 L 253.647 223.94 C 253.007 223.94 252.686 224.248 252.686 224.864 L 252.686 229.463 C 252.686 230.078 253.007 230.386 253.647 230.386 L 258.597 230.386 L 258.597 231.652 L 257.49 232.435 L 253.543 232.435 C 251.343 232.435 250.243 231.377 250.243 229.262 Z" style="paint-order: fill; white-space: pre;"/>
  <path d="M 259.731 232.435 L 259.731 217.574 L 262.175 217.574 L 262.175 221.892 L 265.746 221.892 C 267.933 221.892 269.026 222.949 269.026 225.064 L 269.026 232.435 L 266.582 232.435 L 266.582 224.864 C 266.582 224.248 266.262 223.94 265.622 223.94 L 262.175 223.94 L 262.175 232.435 L 259.731 232.435 Z" style="paint-order: fill; white-space: pre;"/>
  <path d="M 274.068 229.262 L 274.068 225.064 C 274.068 222.949 275.168 221.892 277.368 221.892 L 283.384 221.892 L 283.384 233.279 C 283.384 235.394 282.283 236.451 280.083 236.451 L 276.094 236.451 L 274.987 235.669 L 274.987 234.404 L 279.978 234.404 C 280.62 234.404 280.94 234.095 280.94 233.479 L 280.94 232.435 L 277.368 232.435 C 275.168 232.435 274.068 231.377 274.068 229.262 Z M 276.512 229.463 C 276.512 230.078 276.832 230.386 277.473 230.386 L 280.94 230.386 L 280.94 223.94 L 277.473 223.94 C 276.832 223.94 276.512 224.248 276.512 224.864 L 276.512 229.463 Z" style="paint-order: fill; white-space: pre;"/>
  <path d="M 284.973 232.435 L 284.973 223.197 C 285.475 222.327 286.435 221.892 287.855 221.892 L 290.048 221.892 L 291.156 222.675 L 291.156 223.94 L 288.42 223.94 C 287.946 223.94 287.611 224.054 287.417 224.281 L 287.417 232.435 L 284.973 232.435 Z" style="paint-order: fill; white-space: pre;"/>
  <path d="M 291.699 229.262 L 291.699 225.064 C 291.699 222.949 292.799 221.892 295 221.892 L 297.924 221.892 C 300.109 221.892 301.202 222.949 301.202 225.064 L 301.202 229.262 C 301.202 231.377 300.109 232.435 297.924 232.435 L 295 232.435 C 292.799 232.435 291.699 231.377 291.699 229.262 Z M 294.143 229.463 C 294.143 230.078 294.463 230.386 295.103 230.386 L 297.798 230.386 C 298.438 230.386 298.758 230.078 298.758 229.463 L 298.758 224.864 C 298.758 224.248 298.438 223.94 297.798 223.94 L 295.103 223.94 C 294.463 223.94 294.143 224.248 294.143 224.864 L 294.143 229.463 Z" style="paint-order: fill; white-space: pre;"/>
  <path d="M 302.682 229.262 L 302.682 221.892 L 305.126 221.892 L 305.126 229.463 C 305.126 230.078 305.446 230.386 306.086 230.386 L 309.533 230.386 L 309.533 221.892 L 311.976 221.892 L 311.976 232.435 L 305.982 232.435 C 303.782 232.435 302.682 231.377 302.682 229.262 Z" style="paint-order: fill; white-space: pre;"/>
  <path d="M 313.721 236.451 L 313.721 221.892 L 319.736 221.892 C 321.921 221.892 323.014 222.949 323.014 225.064 L 323.014 229.262 C 323.014 231.377 321.921 232.435 319.736 232.435 L 316.165 232.435 L 316.165 236.451 L 313.721 236.451 Z M 316.165 230.386 L 319.61 230.386 C 320.251 230.386 320.571 230.078 320.571 229.463 L 320.571 224.864 C 320.571 224.248 320.251 223.94 319.61 223.94 L 316.165 223.94 L 316.165 230.386 Z" style="paint-order: fill; white-space: pre;"/>
  <path d="M 188.042 184.059 C 188.042 198.47 182.191 211.539 172.749 220.982 C 163.306 230.425 150.237 236.276 135.826 236.276 C 121.415 236.276 108.346 230.425 98.902 220.982 C 89.459 211.539 83.607 198.47 83.607 184.059 C 83.607 169.648 89.459 156.579 98.902 147.136 C 108.346 137.692 121.415 131.841 135.826 131.841 C 150.237 131.841 163.306 137.692 172.749 147.136 C 182.191 156.579 188.042 169.648 188.042 184.059 Z M 172.587 147.298 C 163.171 137.884 150.19 132.072 135.826 132.072 C 121.46 132.072 108.478 137.884 99.064 147.298 C 89.651 156.713 83.838 169.694 83.838 184.059 C 83.838 198.423 89.651 211.405 99.064 220.819 C 108.478 230.235 121.46 236.047 135.826 236.047 C 150.19 236.047 163.171 230.235 172.587 220.819 C 182.001 211.405 187.814 198.423 187.814 184.059 C 187.814 169.694 182.001 156.713 172.587 147.298 Z" style="fill: none;"/>
  <path d="M 133.001 183.016 L 152.93 233.288 C 147.572 235.15 141.817 236.161 135.826 236.161 C 124.483 236.161 113.987 232.538 105.432 226.383 L 133.001 183.016 Z" style=""/>
  <path d="M 126.025 162.074 L 93.595 214.581 C 87.385 206.004 83.722 195.458 83.722 184.059 C 83.722 170.247 89.098 157.688 97.872 148.364 L 121.199 148.392 L 126.025 162.074 Z" style="fill: rgb(64, 98, 219);"/>
  <path d="M 187.927 184.059 C 187.927 193.797 185.256 202.915 180.605 210.712 L 165.859 215.563 L 133.109 132.027 C 134.009 131.98 134.914 131.956 135.826 131.956 C 164.601 131.956 187.927 155.283 187.927 184.059 Z" style="fill: rgb(42, 64, 142);"/>
  <path d="M 135.789 131.838 C 150.477 131.843 163.174 137.672 172.356 146.761 C 181.539 155.852 187.235 168.227 187.966 181.293 C 188.495 190.867 186.356 200.837 180.976 210.169 C 173.307 223.45 161.241 231.681 148.152 234.819 C 135.064 237.96 120.916 236.023 109.1 229.024 C 106.828 227.661 105.54 223.886 104.839 220.476 C 104.138 217.063 104.036 214.648 104.006 214.086 C 103.462 214.049 101.204 213.917 98.07 213.343 C 94.94 212.77 91.547 211.777 90.602 210.169 C 83.394 197.665 81.93 183.402 85.404 170.487 C 87.141 164.029 90.115 157.893 94.213 152.483 C 96.262 149.778 98.598 147.247 101.199 144.948 C 102.499 143.798 103.869 142.704 105.302 141.673 C 106.02 141.158 106.753 140.658 107.503 140.175 C 107.878 139.933 108.257 139.696 108.64 139.462 C 108.83 139.346 109.024 139.231 109.218 139.116 C 109.314 139.059 109.41 139.001 109.508 138.946 C 109.606 138.888 109.799 138.776 109.799 138.776 C 109.8 138.776 109.915 138.974 109.916 138.974 C 109.916 138.974 109.722 139.088 109.625 139.143 C 109.526 139.201 109.431 139.257 109.335 139.314 C 109.143 139.428 108.95 139.544 108.759 139.659 C 108.379 139.891 108.001 140.128 107.628 140.369 C 106.88 140.85 106.15 141.347 105.437 141.86 C 104.008 142.887 102.647 143.974 101.352 145.119 C 98.759 147.411 96.439 149.926 94.396 152.621 C 90.312 158.013 87.357 164.109 85.625 170.548 C 82.163 183.421 83.607 197.596 90.8 210.054 C 91.679 211.608 94.993 212.547 98.113 213.117 C 101.23 213.687 104.121 213.864 104.121 213.864 L 104.225 213.87 L 104.23 213.973 C 104.23 213.973 104.367 217.035 105.064 220.428 C 105.762 223.827 106.996 227.526 109.218 228.825 C 120.99 235.811 135.05 237.727 148.099 234.597 C 161.147 231.467 173.142 223.297 180.777 210.054 C 186.144 200.756 188.267 190.849 187.735 181.305 C 187.016 168.282 181.348 155.985 172.194 146.925 C 163.04 137.863 150.43 132.062 135.789 132.067 L 135.789 131.838 Z" style="fill: none;" transform="matrix(0, -1, 1, 0, -48.232944, 319.881683)"/>
  <path d="M 135.789 131.838 C 150.477 131.843 163.174 137.672 172.356 146.761 C 181.539 155.852 187.235 168.227 187.966 181.293 C 188.495 190.867 186.356 200.837 180.976 210.169 C 173.307 223.45 161.241 231.681 148.152 234.819 C 135.064 237.96 120.916 236.023 109.1 229.024 C 106.828 227.661 105.54 223.886 104.839 220.476 C 104.138 217.063 104.036 214.648 104.006 214.086 C 103.462 214.049 101.204 213.917 98.07 213.343 C 94.94 212.77 91.547 211.777 90.602 210.169 C 83.394 197.665 81.93 183.402 85.404 170.487 C 87.141 164.029 90.115 157.893 94.213 152.483 C 96.262 149.778 98.598 147.247 101.199 144.948 C 102.499 143.798 103.869 142.704 105.302 141.673 C 106.02 141.158 106.753 140.658 107.503 140.175 C 107.878 139.933 108.257 139.696 108.64 139.462 C 108.83 139.346 109.024 139.231 109.218 139.116 C 109.314 139.059 109.41 139.001 109.508 138.946 C 109.606 138.888 109.799 138.776 109.799 138.776 C 109.8 138.776 109.915 138.974 109.916 138.974 C 109.916 138.974 109.722 139.088 109.625 139.143 C 109.526 139.201 109.431 139.257 109.335 139.314 C 109.143 139.428 108.95 139.544 108.759 139.659 C 108.379 139.891 108.001 140.128 107.628 140.369 C 106.88 140.85 106.15 141.347 105.437 141.86 C 104.008 142.887 102.647 143.974 101.352 145.119 C 98.759 147.411 96.439 149.926 94.396 152.621 C 90.312 158.013 87.357 164.109 85.625 170.548 C 82.163 183.421 83.607 197.596 90.8 210.054 C 91.679 211.608 94.993 212.547 98.113 213.117 C 101.23 213.687 104.121 213.864 104.121 213.864 L 104.225 213.87 L 104.23 213.973 C 104.23 213.973 104.367 217.035 105.064 220.428 C 105.762 223.827 106.996 227.526 109.218 228.825 C 120.99 235.811 135.05 237.727 148.099 234.597 C 161.147 231.467 173.142 223.297 180.777 210.054 C 186.144 200.756 188.267 190.849 187.735 181.305 C 187.016 168.282 181.348 155.985 172.194 146.925 C 163.04 137.863 150.43 132.062 135.789 132.067 L 135.789 131.838 Z" style="fill: none;" transform="matrix(0, -1, 1, 0, -48.232944, 319.881683)"/>
  <path d="M 188.042 184.059 C 188.042 198.47 182.191 211.539 172.749 220.982 C 163.306 230.425 150.237 236.276 135.826 236.276 C 121.415 236.276 108.346 230.425 98.902 220.982 C 89.459 211.539 83.607 198.47 83.607 184.059 C 83.607 169.648 89.459 156.579 98.902 147.136 C 108.346 137.692 121.415 131.841 135.826 131.841 C 150.237 131.841 163.306 137.692 172.749 147.136 C 182.191 156.579 188.042 169.648 188.042 184.059 Z M 172.587 147.298 C 163.171 137.884 150.19 132.072 135.826 132.072 C 121.46 132.072 108.478 137.884 99.064 147.298 C 89.651 156.713 83.838 169.694 83.838 184.059 C 83.838 198.423 89.651 211.405 99.064 220.819 C 108.478 230.235 121.46 236.047 135.826 236.047 C 150.19 236.047 163.171 230.235 172.587 220.819 C 182.001 211.405 187.814 198.423 187.814 184.059 C 187.814 169.694 182.001 156.713 172.587 147.298 Z" style="fill: none;"/>
  <path d="M 188.042 184.059 C 188.042 198.47 182.191 211.539 172.749 220.982 C 163.306 230.425 150.237 236.276 135.826 236.276 C 121.415 236.276 108.346 230.425 98.902 220.982 C 89.459 211.539 83.607 198.47 83.607 184.059 C 83.607 169.648 89.459 156.579 98.902 147.136 C 108.346 137.692 121.415 131.841 135.826 131.841 C 150.237 131.841 163.306 137.692 172.749 147.136 C 182.191 156.579 188.042 169.648 188.042 184.059 Z M 172.587 147.298 C 163.171 137.884 150.19 132.072 135.826 132.072 C 121.46 132.072 108.478 137.884 99.064 147.298 C 89.651 156.713 83.838 169.694 83.838 184.059 C 83.838 198.423 89.651 211.405 99.064 220.819 C 108.478 230.235 121.46 236.047 135.826 236.047 C 150.19 236.047 163.171 230.235 172.587 220.819 C 182.001 211.405 187.814 198.423 187.814 184.059 C 187.814 169.694 182.001 156.713 172.587 147.298 Z" style="fill: none;"/>
  <path d="M 165.892 215.495 L 180.605 210.712 C 174.31 221.262 164.394 229.401 152.927 233.288 L 132.997 183.024 L 105.426 226.384 C 100.984 223.214 96.914 219.17 93.595 214.577 L 126.021 162.078 L 121.189 148.386 L 97.877 148.364 C 106.751 138.901 119.21 132.74 133.109 132.027 L 165.861 215.567 L 165.892 215.495 Z" style="fill: rgb(255, 255, 255);"/>
</svg>