<?xml version="1.0" encoding="utf-8"?>
<svg viewBox="24.392 23.103 453.789 453.784" width="453.789px" height="453.784px" xmlns="http://www.w3.org/2000/svg">
  <path d="M 478.177 250 C 478.177 312.617 452.755 369.401 411.724 410.432 C 370.693 451.463 313.909 476.885 251.292 476.885 C 188.675 476.885 131.891 451.463 90.86 410.432 C 49.829 369.401 24.407 312.617 24.407 250 C 24.407 187.383 49.829 130.599 90.86 89.568 C 131.891 48.537 188.675 23.115 251.292 23.115 C 313.909 23.115 370.693 48.537 411.724 89.568 C 452.755 130.599 478.177 187.383 478.177 250 Z M 411.017 90.275 C 370.112 49.371 313.704 24.115 251.292 24.115 C 188.88 24.115 132.472 49.371 91.567 90.275 C 50.663 131.18 25.407 187.588 25.407 250 C 25.407 312.412 50.663 368.82 91.567 409.725 C 132.472 450.629 188.88 475.885 251.292 475.885 C 313.704 475.885 370.112 450.629 411.017 409.725 C 451.921 368.82 477.177 312.412 477.177 250 C 477.177 187.588 451.921 131.18 411.017 90.275 Z" style="fill: none;"/>
  <path d="M 239.021 245.469 L 325.613 463.903 C 302.333 471.991 277.326 476.385 251.292 476.385 C 202.008 476.385 156.403 460.637 119.233 433.898 L 239.021 245.469 Z" style=""/>
  <path d="M 208.712 154.478 L 67.801 382.622 C 40.815 345.35 24.907 299.533 24.907 250 C 24.907 189.984 48.261 135.422 86.377 94.908 L 187.744 95.029 L 208.712 154.478 Z" style="fill: rgb(64, 98, 219);"/>
  <path d="M 477.677 250 C 477.677 292.317 466.067 331.921 445.858 365.803 L 381.789 386.884 L 239.488 23.917 C 243.398 23.717 247.333 23.615 251.292 23.615 C 376.321 23.615 477.677 124.971 477.677 250 Z" style="fill: rgb(42, 64, 142);"/>
  <path d="M 251.142 23.1 C 314.968 23.123 370.133 48.447 410.028 87.939 C 449.925 127.433 474.678 181.21 477.849 237.979 C 480.151 279.58 470.857 322.904 447.481 363.45 C 414.163 421.157 361.728 456.915 304.861 470.559 C 247.992 484.203 186.521 475.781 135.182 445.37 C 125.313 439.449 119.714 423.049 116.668 408.23 C 113.621 393.403 113.177 382.908 113.043 380.468 C 110.689 380.306 100.869 379.729 87.259 377.241 C 73.654 374.753 58.912 370.432 54.804 363.45 C 23.489 309.122 17.131 247.141 32.221 191.028 C 39.767 162.969 52.689 136.308 70.497 112.801 C 79.4 101.047 89.547 90.053 100.849 80.062 C 106.499 75.067 112.452 70.311 118.681 65.835 C 121.795 63.597 124.986 61.423 128.242 59.325 C 129.87 58.275 131.519 57.242 133.182 56.229 C 134.014 55.723 134.851 55.22 135.691 54.723 C 136.111 54.474 136.533 54.226 136.956 53.98 C 137.378 53.733 138.224 53.245 138.224 53.245 C 138.225 53.245 138.727 54.109 138.728 54.109 C 138.728 54.109 137.881 54.598 137.46 54.843 C 137.039 55.089 136.619 55.335 136.201 55.583 C 135.363 56.079 134.531 56.578 133.702 57.083 C 132.044 58.093 130.407 59.119 128.784 60.165 C 125.538 62.257 122.368 64.416 119.264 66.647 C 113.056 71.108 107.143 75.833 101.511 80.811 C 90.248 90.768 80.168 101.69 71.294 113.405 C 53.545 136.834 40.708 163.319 33.187 191.288 C 18.143 247.228 24.419 308.821 55.67 362.95 C 59.484 369.701 73.883 373.779 87.439 376.257 C 100.989 378.734 113.549 379.499 113.549 379.499 L 113.998 379.526 L 114.018 379.976 C 114.018 379.976 114.616 393.278 117.648 408.029 C 120.681 422.788 126.041 438.859 135.692 444.51 C 186.843 474.856 247.935 483.189 304.628 469.586 C 361.322 455.984 413.448 420.493 446.615 362.95 C 469.935 322.55 479.163 279.502 476.851 238.035 C 473.725 181.447 449.096 128.02 409.324 88.65 C 369.551 49.278 314.76 24.077 251.142 24.1 Z" style="fill: none;" transform="matrix(0, -1, 1, 0, 1.292217, 501.291962)"/>
  <path d="M 251.142 23.1 C 314.968 23.123 370.133 48.447 410.028 87.939 C 449.925 127.433 474.678 181.21 477.849 237.979 C 480.151 279.58 470.857 322.904 447.481 363.45 C 414.163 421.157 361.728 456.915 304.861 470.559 C 247.992 484.203 186.521 475.781 135.182 445.37 C 125.313 439.449 119.714 423.049 116.668 408.23 C 113.621 393.403 113.177 382.908 113.043 380.468 C 110.689 380.306 100.869 379.729 87.259 377.241 C 73.654 374.753 58.912 370.432 54.804 363.45 C 23.489 309.122 17.131 247.141 32.221 191.028 C 39.767 162.969 52.689 136.308 70.497 112.801 C 79.4 101.047 89.547 90.053 100.849 80.062 C 106.499 75.067 112.452 70.311 118.681 65.835 C 121.795 63.597 124.986 61.423 128.242 59.325 C 129.87 58.275 131.519 57.242 133.182 56.229 C 134.014 55.723 134.851 55.22 135.691 54.723 C 136.111 54.474 136.533 54.226 136.956 53.98 C 137.378 53.733 138.224 53.245 138.224 53.245 C 138.225 53.245 138.727 54.109 138.728 54.109 C 138.728 54.109 137.881 54.598 137.46 54.843 C 137.039 55.089 136.619 55.335 136.201 55.583 C 135.363 56.079 134.531 56.578 133.702 57.083 C 132.044 58.093 130.407 59.119 128.784 60.165 C 125.538 62.257 122.368 64.416 119.264 66.647 C 113.056 71.108 107.143 75.833 101.511 80.811 C 90.248 90.768 80.168 101.69 71.294 113.405 C 53.545 136.834 40.708 163.319 33.187 191.288 C 18.143 247.228 24.419 308.821 55.67 362.95 C 59.484 369.701 73.883 373.779 87.439 376.257 C 100.989 378.734 113.549 379.499 113.549 379.499 L 113.998 379.526 L 114.018 379.976 C 114.018 379.976 114.616 393.278 117.648 408.029 C 120.681 422.788 126.041 438.859 135.692 444.51 C 186.843 474.856 247.935 483.189 304.628 469.586 C 361.322 455.984 413.448 420.493 446.615 362.95 C 469.935 322.55 479.163 279.502 476.851 238.035 C 473.725 181.447 449.096 128.02 409.324 88.65 C 369.551 49.278 314.76 24.077 251.142 24.1 Z" style="fill: none;" transform="matrix(0, -1, 1, 0, 1.292217, 501.291962)"/>
  <path d="M 478.177 250 C 478.177 312.617 452.755 369.401 411.724 410.432 C 370.693 451.463 313.909 476.885 251.292 476.885 C 188.675 476.885 131.891 451.463 90.86 410.432 C 49.829 369.401 24.407 312.617 24.407 250 C 24.407 187.383 49.829 130.599 90.86 89.568 C 131.891 48.537 188.675 23.115 251.292 23.115 C 313.909 23.115 370.693 48.537 411.724 89.568 C 452.755 130.599 478.177 187.383 478.177 250 Z M 411.017 90.275 C 370.112 49.371 313.704 24.115 251.292 24.115 C 188.88 24.115 132.472 49.371 91.567 90.275 C 50.663 131.18 25.407 187.588 25.407 250 C 25.407 312.412 50.663 368.82 91.567 409.725 C 132.472 450.629 188.88 475.885 251.292 475.885 C 313.704 475.885 370.112 450.629 411.017 409.725 C 451.921 368.82 477.177 312.412 477.177 250 C 477.177 187.588 451.921 131.18 411.017 90.275 Z" style="fill: none;"/>
  <path d="M 478.177 250 C 478.177 312.617 452.755 369.401 411.724 410.432 C 370.693 451.463 313.909 476.885 251.292 476.885 C 188.675 476.885 131.891 451.463 90.86 410.432 C 49.829 369.401 24.407 312.617 24.407 250 C 24.407 187.383 49.829 130.599 90.86 89.568 C 131.891 48.537 188.675 23.115 251.292 23.115 C 313.909 23.115 370.693 48.537 411.724 89.568 C 452.755 130.599 478.177 187.383 478.177 250 Z M 411.017 90.275 C 370.112 49.371 313.704 24.115 251.292 24.115 C 188.88 24.115 132.472 49.371 91.567 90.275 C 50.663 131.18 25.407 187.588 25.407 250 C 25.407 312.412 50.663 368.82 91.567 409.725 C 132.472 450.629 188.88 475.885 251.292 475.885 C 313.704 475.885 370.112 450.629 411.017 409.725 C 451.921 368.82 477.177 312.412 477.177 250 C 477.177 187.588 451.921 131.18 411.017 90.275 Z" style="fill: none;"/>
  <path d="M 381.932 386.592 L 445.858 365.803 C 418.513 411.647 375.425 447.012 325.6 463.9 L 239 245.5 L 119.2 433.9 C 99.905 420.124 82.222 402.56 67.8 382.6 L 208.696 154.492 L 187.7 95 L 86.4 94.9 C 124.961 53.787 179.098 27.019 239.488 23.917 L 381.8 386.9 L 381.932 386.592 Z" style="fill: rgb(255, 255, 255);"/>
</svg>