<?xml version="1.0" standalone="no"?>
<!DOCTYPE svg PUBLIC "-//W3C//DTD SVG 20010904//EN"
 "http://www.w3.org/TR/2001/REC-SVG-20010904/DTD/svg10.dtd">
<svg version="1.0" xmlns="http://www.w3.org/2000/svg"
 width="512.000000pt" height="512.000000pt" viewBox="0 0 512.000000 512.000000"
 preserveAspectRatio="xMidYMid meet">
<metadata>
Created by potrace 1.14, written by Peter Selinger 2001-2017
</metadata>
<g transform="translate(0.000000,512.000000) scale(0.100000,-0.100000)"
fill="#000000" stroke="none">
<path d="M2791 4744 c-35 -124 -61 -227 -59 -229 1 -1 17 -6 33 -9 l30 -7 24
88 c13 49 27 93 30 100 8 16 110 -18 125 -42 6 -10 27 -63 46 -119 33 -94 37
-101 68 -110 18 -5 35 -6 38 -3 8 8 -35 147 -61 194 l-23 42 40 6 c62 11 100
51 105 111 6 63 -14 105 -59 127 -38 18 -237 77 -260 77 -11 0 -32 -62 -77
-226z m226 125 c80 -22 103 -42 103 -84 0 -32 -19 -56 -53 -68 -19 -7 -176 28
-190 42 -7 7 16 110 30 134 3 4 14 5 25 1 11 -3 49 -14 85 -25z"/>
<path d="M1878 4883 c-16 -2 -28 -9 -28 -15 0 -34 64 -445 70 -452 7 -7 223
17 273 30 11 4 17 15 17 35 0 34 8 33 -121 13 -55 -9 -104 -12 -108 -8 -5 5
-21 98 -36 207 -16 108 -31 196 -34 196 -3 -1 -18 -4 -33 -6z"/>
<path d="M1120 4473 c-8 -3 -61 -37 -117 -75 -85 -58 -101 -73 -93 -86 25 -45
256 -366 265 -369 6 -1 20 5 33 15 l22 17 -55 78 -55 77 70 51 c116 84 138
130 102 213 -31 69 -107 104 -172 79z m90 -83 c51 -51 35 -93 -65 -165 l-61
-43 -46 67 -46 66 71 48 c77 52 115 59 147 27z"/>
<path d="M3896 4444 c-85 -31 -154 -103 -176 -183 -29 -108 56 -251 176 -297
l43 -16 70 48 c39 27 71 53 71 57 0 4 -25 43 -56 87 -55 79 -56 79 -80 64 -13
-9 -24 -19 -24 -21 0 -3 16 -28 35 -54 19 -27 35 -53 35 -57 0 -10 -54 -42
-73 -42 -28 0 -99 61 -118 103 -34 76 -22 132 43 194 42 41 96 63 152 63 37 0
52 -6 81 -31 20 -18 43 -45 51 -60 18 -36 18 -94 -1 -123 -14 -21 -13 -24 9
-45 l24 -22 22 31 c48 68 33 161 -41 245 -61 69 -154 92 -243 59z"/>
<path d="M3360 3899 c-25 -28 -36 -33 -69 -30 -36 2 -45 -2 -85 -42 -47 -47
-63 -92 -53 -144 l6 -28 -14 30 c-18 39 -18 77 0 122 8 19 15 39 15 43 0 20
-199 -36 -275 -78 -50 -27 -50 -28 -57 -87 -3 -33 -2 -90 3 -127 9 -67 47
-169 68 -182 6 -4 11 -12 11 -18 0 -18 -50 34 -70 72 -27 53 -43 152 -38 230
l5 69 -47 -24 c-54 -27 -59 -39 -61 -140 -1 -54 -3 -63 -9 -40 -4 17 -8 54 -9
83 l-1 53 -50 -28 c-45 -25 -50 -32 -57 -73 -4 -25 -8 -81 -8 -125 0 -65 4
-87 23 -120 l23 -40 -25 27 -25 28 -3 -33 c-6 -57 -28 90 -28 186 0 48 -3 87
-8 87 -4 0 -24 -11 -44 -25 -36 -24 -37 -27 -40 -93 l-3 -67 -9 63 c-5 34 -11
61 -15 60 -131 -64 -176 -99 -220 -173 -10 -17 -10 -14 -5 18 3 20 3 37 -1 37
-3 0 -55 -22 -114 -50 -59 -27 -118 -50 -131 -50 -41 0 -106 39 -168 101 -34
34 -96 79 -141 104 -44 24 -108 65 -142 90 -58 43 -78 50 -124 47 -47 -4 -67
-14 -85 -45 -24 -39 -26 -59 -5 -50 28 10 106 -20 168 -65 33 -24 88 -57 122
-72 49 -22 76 -44 138 -114 42 -47 77 -90 77 -95 0 -5 -19 -33 -42 -61 -106
-129 -132 -182 -153 -298 -18 -105 -54 -179 -121 -251 -30 -32 -54 -64 -54
-70 0 -29 -46 -96 -115 -170 -74 -80 -96 -120 -77 -144 6 -6 12 -23 14 -37 2
-21 9 -25 42 -28 50 -4 75 19 127 118 21 41 66 109 100 150 33 41 96 122 140
179 74 98 84 105 79 56 -2 -26 -42 -95 -69 -119 -15 -14 -21 -31 -21 -62 0
-32 -12 -65 -44 -127 -46 -88 -64 -146 -50 -169 5 -7 7 -25 5 -40 -2 -26 0
-28 31 -28 53 0 81 38 124 165 20 61 43 123 51 138 8 16 72 89 143 162 70 74
153 167 183 208 89 120 80 116 303 136 106 10 234 37 234 50 0 4 -13 14 -29
24 -38 22 -67 70 -81 131 -6 27 -15 57 -21 67 -5 11 -7 19 -5 19 9 0 54 -84
61 -115 8 -38 45 -86 78 -104 23 -12 31 -10 94 23 38 20 110 68 159 106 127
100 191 130 278 130 74 0 146 -17 146 -34 0 -5 -11 -26 -25 -46 -32 -46 -23
-77 28 -109 43 -26 56 -26 111 0 47 22 76 65 76 113 0 30 0 30 35 14 28 -13
28 -14 29 -83 l1 -50 43 -3 c36 -3 47 1 72 27 30 29 35 53 30 136 -2 41 -37
111 -66 134 -24 19 -24 21 -10 50 9 16 29 39 46 51 39 28 45 55 24 115 -33 97
-53 200 -47 243 6 45 2 49 -41 32 -16 -6 -26 -6 -26 0 0 12 -39 37 -65 42 -11
2 -29 17 -40 33 -30 44 -67 45 -105 4z m-1255 -704 c-9 -32 -18 -55 -20 -53
-3 2 3 30 12 61 9 32 18 55 20 53 3 -3 -3 -30 -12 -61z m-334 -256 c-16 -67
-14 -144 4 -159 12 -10 13 -16 4 -26 -17 -21 -26 -17 -38 17 -18 51 -13 124
11 174 12 24 23 43 25 41 2 -2 -1 -23 -6 -47z"/>
<path d="M450 3641 c-149 -30 -237 -173 -195 -316 18 -65 69 -126 129 -158 57
-30 165 -30 222 0 58 31 110 93 128 154 20 65 20 83 1 145 -35 119 -164 198
-285 175z"/>
<path d="M4493 3640 c-82 -17 -145 -69 -182 -150 -67 -147 36 -324 201 -346
100 -14 211 47 254 140 88 189 -71 395 -273 356z"/>
<path d="M4492 2821 l3 -43 108 -61 c108 -62 108 -62 85 -79 -195 -142 -185
-132 -180 -172 2 -20 7 -36 10 -36 2 0 62 42 131 94 l126 93 100 7 c54 4 100
8 101 9 1 1 -1 17 -3 35 l-5 33 -98 -7 -98 -7 -119 73 c-65 40 -128 80 -141
88 -23 15 -23 15 -20 -27z"/>
<path d="M350 2790 c-85 -4 -167 -8 -182 -9 -25 -1 -28 -5 -28 -37 l0 -37 82
7 81 7 34 -33 c18 -17 33 -35 33 -39 0 -4 -49 -44 -110 -90 -110 -84 -110 -84
-110 -126 0 -24 3 -43 8 -43 4 1 65 48 137 105 l130 105 45 -43 c25 -23 71
-66 103 -97 l57 -54 0 44 c0 44 -1 46 -117 156 l-118 111 113 8 c116 7 118 8
106 53 -7 25 14 24 -264 12z"/>
<path d="M2160 2635 l0 -144 122 -3 122 -3 48 -149 47 -148 -356 -552 c-195
-303 -358 -557 -360 -564 -4 -10 33 -12 177 -10 l183 3 244 360 c134 198 250
366 257 373 10 10 45 -71 177 -404 90 -229 169 -418 175 -421 11 -4 523 153
534 163 8 9 -81 264 -93 264 -7 0 -63 -15 -124 -34 l-113 -34 -287 724 -288
724 -232 0 -233 0 0 -145z"/>
<path d="M4472 2208 c-28 -218 -29 -208 7 -208 25 0 29 4 35 38 3 20 6 48 6
62 1 51 2 52 214 24 108 -14 199 -25 200 -23 2 2 7 18 10 35 l7 30 -178 23
c-98 13 -191 25 -206 28 l-28 6 6 66 c4 36 8 71 9 76 0 6 -13 11 -30 13 l-30
3 -22 -173z"/>
<path d="M363 2281 c-132 -45 -194 -153 -158 -276 30 -104 110 -164 217 -165
162 0 284 120 263 259 -24 157 -164 237 -322 182z m195 -78 c94 -70 85 -205
-17 -262 -55 -30 -155 -40 -197 -18 -58 30 -78 62 -82 132 -4 62 -3 64 35 105
63 68 198 90 261 43z"/>
<path d="M4397 1893 c-2 -4 -7 -20 -10 -34 -7 -26 -6 -26 219 -94 238 -73 244
-73 244 -20 0 17 -28 28 -213 84 -116 35 -217 66 -224 68 -6 2 -13 0 -16 -4z"/>
<path d="M535 1714 c-110 -57 -204 -105 -209 -107 -10 -4 12 -67 23 -67 3 0
44 21 90 45 45 25 86 45 90 45 4 0 18 -22 31 -49 28 -61 25 -79 -41 -193 l-50
-87 19 -37 19 -38 28 45 c51 80 85 151 85 177 l0 26 28 -27 c60 -57 130 -57
186 2 51 53 46 88 -28 239 -36 72 -67 131 -68 131 -2 -1 -93 -48 -203 -105z
m225 -64 c48 -95 51 -130 13 -160 -32 -25 -69 -20 -97 13 -20 24 -89 157 -84
162 3 3 121 64 125 65 2 0 21 -36 43 -80z"/>
<path d="M4335 1649 c-63 -37 -125 -132 -125 -192 0 -70 54 -127 120 -127 46
0 78 20 153 99 59 62 72 71 103 71 30 0 37 -5 48 -32 35 -82 -53 -198 -138
-183 -31 6 -34 4 -44 -24 -11 -30 -10 -31 29 -41 76 -21 155 25 203 118 51 98
17 206 -72 231 -55 16 -93 -3 -178 -89 -68 -70 -83 -80 -109 -78 -21 2 -34 11
-43 31 -12 24 -11 33 11 81 28 62 55 81 102 73 29 -5 35 -2 45 24 7 16 10 32
7 35 -12 12 -93 14 -112 3z"/>
<path d="M783 1242 c-89 -81 -167 -152 -172 -157 -8 -8 24 -51 105 -140 63
-72 118 -131 123 -133 4 -1 16 7 26 18 18 20 18 21 -1 43 -11 12 -54 60 -96
107 l-76 85 57 52 57 51 83 -94 c45 -52 86 -94 90 -94 4 0 16 9 26 20 17 19
15 22 -64 110 -44 50 -81 94 -81 99 0 5 22 27 48 50 l49 40 78 -89 c100 -115
99 -114 124 -98 12 7 21 17 21 21 0 11 -219 257 -228 256 -4 0 -80 -66 -169
-147z"/>
<path d="M4043 1258 c-18 -13 -69 -63 -115 -112 l-83 -89 110 -104 c61 -57
140 -131 176 -163 l66 -59 24 25 23 25 -78 72 -79 72 46 43 c54 49 67 50 200
26 l88 -16 30 28 c16 15 26 31 22 34 -13 11 -155 33 -206 32 -42 -1 -48 1 -41
16 4 9 9 38 12 65 4 44 1 50 -36 87 -34 35 -46 40 -84 40 -29 0 -54 -7 -75
-22z m112 -68 c39 -43 16 -99 -79 -190 l-36 -34 -53 52 -52 53 71 69 c78 77
114 89 149 50z"/>
<path d="M3607 910 c-95 -62 -136 -94 -130 -103 73 -120 246 -382 252 -382 15
0 291 180 291 191 0 5 -6 19 -14 29 -13 18 -20 15 -132 -58 l-119 -77 -20 25
c-11 14 -30 42 -42 64 l-23 39 105 67 c58 37 105 72 105 79 0 6 -7 19 -14 29
-13 17 -21 13 -114 -47 -56 -36 -105 -67 -111 -68 -5 -2 -26 22 -45 52 l-35
55 107 68 c59 38 111 73 115 77 10 9 -13 50 -28 50 -5 0 -72 -41 -148 -90z"/>
<path d="M1147 843 l-208 -146 31 -20 31 -19 58 41 c33 22 62 41 66 41 11 0
155 -100 155 -108 -1 -4 -7 -34 -15 -67 -8 -33 -15 -65 -15 -70 0 -10 59 -50
64 -43 1 1 25 114 53 251 l51 247 -28 20 c-16 11 -30 20 -32 20 -1 0 -97 -66
-211 -147z m177 -30 c-14 -54 -26 -101 -27 -105 -1 -4 -28 9 -59 30 -32 20
-57 40 -55 44 1 5 156 125 163 128 1 0 -9 -44 -22 -97z"/>
<path d="M3369 788 l-27 -9 -7 -214 -7 -213 -130 159 c-72 87 -135 159 -141
159 -27 0 -57 -13 -56 -24 1 -20 315 -371 335 -374 10 -1 27 3 37 10 15 11 18
42 25 261 4 137 5 250 2 252 -3 1 -17 -2 -31 -7z"/>
<path d="M1817 723 c-5 -9 -52 -216 -68 -296 -24 -130 58 -217 203 -217 84 0
128 35 157 124 24 75 76 304 70 310 -2 3 -17 6 -34 8 l-29 3 -32 -136 c-42
-180 -51 -205 -82 -230 -51 -40 -161 -7 -182 55 -9 29 -6 58 26 200 21 91 35
168 33 170 -10 8 -58 15 -62 9z"/>
<path d="M2837 643 c-12 -3 -17 -11 -14 -23 3 -10 22 -116 43 -235 l38 -217
30 6 c16 4 31 8 34 11 3 3 -59 374 -75 443 -5 21 -18 25 -56 15z"/>
<path d="M2290 502 c0 -66 3 -174 7 -240 l6 -122 29 0 28 0 0 182 0 182 123
-180 c112 -165 125 -179 155 -182 l32 -3 0 240 0 241 -37 0 -36 0 6 -182 7
-182 -122 182 c-123 181 -123 181 -160 182 l-38 0 0 -118z"/>
</g>
</svg>
